<svg width="80" viewBox="0 0 572 82" fill="none" xmlns="http://www.w3.org/2000/svg">
<path d="M9.5 72L65.7721 15.7279C72.8015 8.69845 84.1985 8.69846 91.2279 15.7279L134.772 59.2721C141.802 66.3015 153.198 66.3015 160.228 59.2721L203.772 15.7279C210.802 8.69845 222.198 8.69846 229.228 15.7279L272.772 59.2721C279.802 66.3015 291.198 66.3015 298.228 59.2721L341.772 15.7279C348.802 8.69845 360.198 8.69846 367.228 15.7279L410.828 59.3282C417.836 66.3357 429.189 66.3608 436.228 59.3844L480.272 15.7279C487.302 8.69845 498.698 8.69846 505.728 15.7279L562 72" stroke="#449dca" stroke-width="19" stroke-linecap="round"/>
</svg>
